<?xml version="1.0" encoding="utf-8"?>
<!-- Generator: Adobe Illustrator 24.1.0, SVG Export Plug-In . SVG Version: 6.00 Build 0)  -->
<svg version="1.1" id="Layer_1" xmlns="http://www.w3.org/2000/svg" xmlns:xlink="http://www.w3.org/1999/xlink" x="0px" y="0px"
	 viewBox="0 0 151.9 28.5" style="enable-background:new 0 0 151.9 28.5;" xml:space="preserve">
<style type="text/css">
	.st0{fill:#00ACB1;}
	.st1{fill:#005963;}
</style>
<g>
	<g>
		<g>
			<g>
				<g>
					<path class="st0" d="M37.5,28.2V9.6h3.6l0.3,1.9l1.2-0.7c0.9-0.5,1.8-0.9,2.7-1.1c0.9-0.3,1.7-0.4,2.6-0.4
						c1.4,0,2.5,0.3,3.4,0.8c0.9,0.5,1.6,1.3,2,2.2c0.4,1,0.7,2.1,0.7,3.3v12.6h-4.6V16.8c0-1.1-0.3-1.9-0.8-2.5
						c-0.5-0.5-1.3-0.8-2.4-0.8c-0.5,0-0.9,0.1-1.4,0.2c-0.4,0.1-0.9,0.3-1.3,0.5l-1.3,0.6v13.4H37.5z M61.2,28.2V16.8
						c0-1.1-0.3-1.9-0.8-2.5c-0.5-0.5-1.3-0.8-2.5-0.8c-0.5,0-0.9,0.1-1.3,0.2c-0.4,0.1-0.9,0.3-1.3,0.5l-1.6,0.8l-1-3l2-1.1
						c0.9-0.5,1.8-0.9,2.7-1.1c0.9-0.3,1.7-0.4,2.6-0.4c1.4,0,2.5,0.3,3.4,0.8c0.9,0.5,1.6,1.3,2,2.2c0.4,1,0.7,2.1,0.7,3.3v12.6
						H61.2z"/>
				</g>
			</g>
			<g>
				<g>
					<path class="st0" d="M79.9,28.5c-1.8,0-3.5-0.4-5-1.1c-1.5-0.7-2.7-1.8-3.6-3.2c-0.9-1.4-1.4-3.2-1.4-5.2c0-1.5,0.2-2.8,0.7-4
						c0.5-1.2,1.2-2.2,2.1-3c0.9-0.8,1.9-1.5,3-1.9c1.1-0.5,2.3-0.7,3.6-0.7c1.9,0,3.4,0.4,4.7,1.2c1.3,0.8,2.2,1.9,2.9,3.3
						c0.6,1.4,1,3,1,4.8v1.5H74.7c0.2,1,0.5,1.8,1,2.5c0.5,0.6,1.2,1.1,2,1.4c0.8,0.3,1.7,0.5,2.7,0.5c0.6,0,1.3-0.1,2-0.2
						c0.7-0.1,1.4-0.3,2.1-0.5l1.6-0.5l1.2,3l-1.4,0.7c-1,0.5-2,0.8-3,1C81.9,28.4,80.9,28.5,79.9,28.5z M74.9,16.8h8.6
						c-0.2-1.1-0.6-2-1.3-2.6c-0.7-0.6-1.6-0.9-2.8-0.9c-0.8,0-1.5,0.1-2.1,0.4c-0.6,0.3-1.1,0.7-1.5,1.2
						C75.4,15.4,75.1,16,74.9,16.8z"/>
				</g>
			</g>
			<g>
				<g>
					<path class="st0" d="M99,28.5c-1.3,0-2.5-0.3-3.5-0.8c-1-0.5-1.9-1.2-2.5-2.1c-0.7-0.9-1.2-1.9-1.6-3.1
						c-0.4-1.1-0.5-2.3-0.5-3.6c0-1.3,0.2-2.5,0.5-3.7c0.4-1.1,0.9-2.2,1.6-3.1c0.7-0.9,1.6-1.6,2.6-2.1c1-0.5,2.2-0.8,3.5-0.8
						c0.7,0,1.4,0.1,2.1,0.2c0.8,0.2,1.5,0.4,2.2,0.7l1.1,0.5V1.2L109,0v28.2h-3.5l-0.4-2.3l-1.1,0.8c-0.8,0.5-1.6,1-2.5,1.3
						C100.7,28.3,99.9,28.5,99,28.5z M95.5,18.9c0,1.2,0.2,2.2,0.5,3c0.4,0.8,0.9,1.5,1.6,1.9c0.7,0.4,1.6,0.7,2.7,0.7
						c0.4,0,0.9-0.1,1.4-0.2c0.5-0.1,1-0.4,1.5-0.7l1.2-0.8v-8.4l-1.2-0.5c-0.5-0.2-0.9-0.3-1.4-0.5s-0.9-0.2-1.4-0.2
						c-1,0-1.8,0.2-2.5,0.6c-0.7,0.4-1.3,1-1.7,1.8C95.7,16.6,95.5,17.6,95.5,18.9z"/>
				</g>
			</g>
			<path class="st1" d="M120,28.5c-2.1,0-3.6-0.6-4.6-1.7c-1-1.2-1.5-2.7-1.5-4.6V9.6h4.6V21c0,1.1,0.3,2,0.8,2.5
				c0.5,0.5,1.3,0.8,2.4,0.8c0.5,0,0.9-0.1,1.3-0.2c0.4-0.1,0.9-0.3,1.3-0.5l1.3-0.6V9.6h4.6v18.6h-3.5l-0.5-3l1,0.7l-2,1.1
				c-0.9,0.5-1.8,0.9-2.7,1.1C121.7,28.4,120.8,28.5,120,28.5z"/>
			<path class="st1" d="M133.2,28.2l6.6-9.4l-6.2-9.2h5.3l3.8,5.5l3.9-5.5h5.1l-6.3,9l6.5,9.6h-5.4l-4-6l-4.2,6H133.2z"/>
		</g>
	</g>
	<g>
		<defs>
			<path id="SVGID_1_" d="M11.7,25.4l3.4,2.7c0.2,0.2,0.5,0.2,0.7,0c11.6-8,15.9-14.3,15-20.3c-1.1-6.9-7.4-9.6-14.3-6.5
				c-0.5,0.2-1,0.2-1.5,0.1C12.8,0.9,11,0.1,9.5,0C5.9-0.1,2.4,1.9,0.8,5.2c-2.8,6,2.5,13,8,17.8c0.1,0.1,0.3,0.1,0.4,0l8.1-6
				c0.4-0.3,0.4-0.8,0-1.1l-2.1-1.5c-0.3-0.2-0.7-0.2-0.9,0l-4.2,2.9c-1.9-1.2-3.5-3.2-4.3-5.4C4.9,9.8,5.4,7.2,7.2,5.7
				c1.6-1.3,3.1-1,5.4,0c0.8,0.3,1.7,0.5,2.6,0.5h0c1.1,0,2.2-0.3,3.2-0.8c1.1-0.5,2.2-0.8,3.5-0.4c2.7,0.9,4.1,4,3.1,6.7
				c-0.4,1-0.9,2-1.8,3.1c-1.2,1.6-2.6,3-4.2,4.2c-2.2,1.7-6.2,4.7-7.5,5.6C11.5,24.9,11.5,25.2,11.7,25.4z"/>
		</defs>
		<use xlink:href="#SVGID_1_"  style="overflow:visible;fill:#00ACB1;"/>
		<clipPath id="SVGID_2_">
			<use xlink:href="#SVGID_1_"  style="overflow:visible;"/>
		</clipPath>
	</g>
</g>
</svg>
